<svg height="-510" viewBox="270.7 295 824.7 182" width="2500" xmlns="http://www.w3.org/2000/svg" xmlns:xlink="http://www.w3.org/1999/xlink"><linearGradient id="a"><stop offset=".015" stop-color="#da3d94"/><stop offset=".542" stop-color="#9b2cd5"/><stop offset="1" stop-color="#2da4e0"/></linearGradient><linearGradient id="b" gradientTransform="matrix(1 0 0 -1 0 768)" gradientUnits="userSpaceOnUse" x1="361.415" x2="361.415" xlink:href="#a" y1="291.1" y2="472.9"/><linearGradient id="c" gradientTransform="matrix(1 0 0 -1 0 768)" gradientUnits="userSpaceOnUse" x1="331.772" x2="331.772" xlink:href="#a" y1="334.193" y2="429.846"/><linearGradient id="d" gradientTransform="matrix(1 0 0 -1 0 768)" gradientUnits="userSpaceOnUse" x1="359.05" x2="359.05" xlink:href="#a" y1="335.697" y2="427.611"/><linearGradient id="e" gradientTransform="matrix(1 0 0 -1 0 768)" gradientUnits="userSpaceOnUse" x1="378.972" x2="378.972" xlink:href="#a" y1="354.155" y2="410.024"/><linearGradient id="f" gradientTransform="matrix(1 0 0 -1 0 768)" gradientUnits="userSpaceOnUse" x1="399.062" x2="399.062" xlink:href="#a" y1="372.832" y2="391.129"/><path d="m452.1 386.1c1 48.9-39.9 90.9-90.6 90.8-50.3-.1-90.8-41.2-90.8-91 0-49.9 41-90.9 90.9-90.8 50.8 0 91.8 42.5 90.5 91zm-166.1 0c-1.4 39.6 32.8 75.6 74.7 75.8 42.1.2 77-33.1 76.9-76.1-.1-43.8-35.9-75.8-76.1-75.9-41.9 0-77 36-75.5 76.2z" fill="url(#b)"/><path d="m673.4 436h2c6.8.9 6.8.9 9.2 7.4 1.3 3.5 3.5 6.4 6.7 8.4 8.2 5 16.6 5.2 25 .5 7.9-4.3 9.9-16.7 5.8-23.8-1.9-3.3-2.7-3.8-6.4-2.9-8.4 2-16.7 2-25.1-.3-13.5-3.8-24.2-16.6-25.9-30.6-1-8.1-.6-15.9 2-23.6 4.7-13.5 18.5-23.9 33.5-24.3 6.3-.1 12.7-.2 18.6 2.4 2.1 1 3.5-.2 4.8-1.6 1.8-1.9 3.6-3.8 6.6-4.2 2.3-.3 4.5-.1 6.1 1.3 2.7 2.2 5 4.8 7.5 7.3 1.2 1.2 1 2.4-.1 3.5-1.8 1.8-3.5 3.6-5.3 5.3-1.4 1.4-1.4 2.6-.5 4.4 7.5 15.3 7.3 30.4-1.4 45.2-.9 1.6-1.4 2.7 0 4.3 6.8 7.4 8.2 16.6 7.4 26.1-1.1 12.4-6.9 22.1-17.4 28.9-3.5 2.3-7.4 3.7-11.5 4.5-12.7 2.6-24.8 1.3-35.7-6.3-9.4-6.5-14.1-15.8-15.4-26.9-.4-3.7.2-4.4 4-4h.5c1.7-.1 3.4-.1 5-1zm49.6-49c0-12.4-7.2-19.6-19.1-20.1-11.1-.5-20 8.5-20 20 0 10 8 20.2 19.8 19.9 11.9-.1 19.3-7.5 19.3-19.8zm275.4-28.6c3.6-3.4 7.4-6.4 11.9-8.3 18.3-7.7 43.6-3.5 53.5 18.6 2 4.4 3.2 9.1 3.2 14v38.5c0 5.3-.4 5.7-5.6 5.8-3 0-6 .1-9 0-4-.1-4.6-.7-4.7-4.7-.1-8.7.1-17.3-.1-26-.1-5 .6-10-.7-14.9-2.3-8.9-8.9-14.3-18-14.4-12.9-.2-20.9 7.6-20.9 20.6v33.5c0 5.6-.3 5.8-6 5.9-2.8 0-5.7.1-8.5 0-4.1-.1-4.7-.7-4.7-4.7-.1-6.7 0-13.3 0-20 0-5.3.1-10.7 0-16-.2-9-5.4-16.5-13.3-18.6-15.3-4-26 5.3-26.3 18.9-.2 11.5 0 23-.1 34.5 0 5.6-.3 5.8-6 5.9h-7.8c-4.7-.1-5.2-.6-5.3-5.1-.1-2.8 0-5.7 0-8.5v-59.5-4c0-2 .9-3.1 3-3.1 4.4-.1 8.8-.2 12.1 3.4 1.7 1.8 3.3 1.6 5.3.6 9.3-4.8 19.2-4.9 29.2-3 6.5 1.3 12.2 4.4 17 9 .4.5 1.1 1 1.8 1.6zm-97.3-5.8c1.6-5.7 1.6-5.7 7.2-5.7 3.2 0 6.3-.1 9.5 0 3.4.1 3.9.8 4.2 4.2.1 1 0 2 0 3v66.4c0 1-.1 2 0 3 .1 2.5-1 3.5-3.5 3.6-6.3.4-11.4-1.6-15.2-7.1-11.5 7.2-23.6 8.9-36.5 5.4-7.6-2-13.6-6.4-18.9-12.3-10.8-12.1-10.8-39-.8-51.5 6.6-8.2 14.9-13.4 25.2-14.6 10-1.1 19.9-.1 28.8 5.6zm-21.9 54.3c11.7 0 19.6-8.4 19.7-20.5.1-8.7-7.7-19.8-20.3-19.5-10.4.2-19.6 8.8-19.4 20.4.2 11.5 8.4 19.6 20 19.6zm-329.8-54.1c1.1-6.6 1-5.7 8.5-5.8h7.3c4.6.1 4.7.3 4.8 5.2v72c0 2.1-1 3-3 3.1-5.7.3-11-.6-14.6-5.7-.3-.4-.8-.6-1.1-.9-23.8 13.2-44.2 4.7-53.8-5.6-13.2-14.2-11.6-40.1-3.5-51.4 6.3-8.8 14.5-14.6 25.3-16.1 10.4-1.6 20.5-.6 30.1 5.2zm-22.5 14.3c-10.2-.5-19.7 6.9-19.5 20 .2 13.7 9.7 20 19.8 19.8 11.6-.2 19.5-8.3 19.7-19.9.2-12.9-9.6-20.8-20-19.9zm246.2-16.3c8.2-3.5 15.9-4.4 23.8-3.9 17.9 1.1 32.1 15 34.4 31.4 1.1 8.1.6 16.3.7 24.4.1 6.5.1 13 0 19.5-.1 4.3-.7 4.8-5 4.9-3.3.1-6.7.1-10 0-4.5-.1-5.1-.6-5.1-5.3 0-12.2.1-24.3 0-36.5-.1-8.8-5.1-15.5-13.6-17.5-10.1-2.5-20.2.8-24.3 11.3-.9 2.3-1 4.5-1 6.9v34.5c0 1.3 0 2.7-.1 4-.1 1.5-1 2.6-2.5 2.6-4.8.1-9.7.1-14.5 0-1.8 0-2.7-1.2-2.8-2.9-.1-1.3-.1-2.7-.1-4v-96.9-2.5c.2-3.4.5-3.7 3.8-3.8 1-.1 2 0 3 0 8.8 0 13.1 4.3 13.2 13.2.1 5 0 10 0 15 .1 1.4.1 3 .1 5.6zm-195.1 35.8v-34.6c0-5.2.1-5.2 5.4-5.3 3.5-.1 6.7.4 9.3 2.8 2.3 2.1 4.4 1.6 7.1.5 14.1-5.4 28-5.4 40.8 3.6 10 7 15.6 16.6 15.5 29.2v39c0 5-.2 5.1-5 5.2h-9.4s-4.8-.2-4.9-4.7c-.1-8 0-16 0-24 0-4.2.1-8.3 0-12.5-.2-11.2-7.8-18.5-19-18.8-7.7-.2-13.6 2.8-17.7 9.1-2.6 4-2.8 8.8-2.9 13.5-.1 10.3 0 20.7-.1 31v3.5c.1 1.8-.7 2.9-2.5 3.9h-14c-2.3-1-2.6-2.6-2.5-4.5v-36.9zm497-.1v-34c0-5.6.1-5.7 5.5-5.7 9.3 0 14.6 5.1 14.6 14.5.1 20 0 40 0 60 0 5.2-.5 5.7-5.7 5.7h-9c-4.8-.1-5.4-.6-5.4-5.6zm9.8-51.3c-8 0-9.9-2-9.8-10.1.1-6.7 2.7-9.2 9.5-9.3 1.2 0 2.3-.1 3.5 0 4.5.3 6.7 2.4 7.1 6.8.1.7 0 1.3 0 2 .3 7.4-1.1 11.4-10.3 10.6z"/><path d="m331.7 385.8c-1.5-2.5-3.7-4.1-5.5-6-12.6-12.8-8.7-33.5 7.6-40.7 6-2.7 11.3.6 11.3 7.1.1 26.3.1 52.6 0 78.9 0 7.6-5.2 10.6-12.1 7.5-9.3-4.2-14.2-11.7-14.6-21.4-.4-8.2 3-15.6 9.6-21 1.2-1.3 2.8-2.3 3.7-4.4z" fill="url(#c)"/><path d="m365 386v36.9c0 1.5 0 3-.3 4.5-.6 2.9-2.9 4.8-5.6 4.9-2.8.1-5.4-2-6-5-.2-1-.2-2-.2-3 0-25 .1-49.9.1-74.9 0-1.9.2-3.7.9-5.4 1-2.4 3.3-3.9 5.9-3.7 2.4.2 4.7 2.1 5.1 4.7.2 1.3.2 2.7.2 4 0 12.3 0 24.6-.1 37 .1 0 .1 0 0 0z" fill="url(#d)"/><path d="m373 386v-18.9-1.5c.2-4.8 2.5-7.6 6.1-7.5s5.9 2.9 5.9 7.8c.1 13.5 0 26.9 0 40.4 0 .7 0 1.3-.1 2-.6 3.6-3.3 6-6.4 5.7-3.2-.3-5.5-2.7-5.6-6.4 0-7.3 0-14.5.1-21.6-.1 0 0 0 0 0z" fill="url(#e)"/><path d="m393 385.8c0-1.3-.1-2.7 0-4 .4-2.9 2.1-4.5 4.9-4.9 2.9-.4 5 .5 6.1 3.2 1.6 3.8 1.6 7.8.1 11.7-1.1 2.8-3.5 3.8-6.6 3.2-2.7-.5-4.2-2.2-4.5-5.2-.2-1.3 0-2.6 0-4z" fill="url(#f)"/></svg>