<svg version="1.1" id="Layer_1" xmlns:x="ns_extend;" xmlns:i="ns_ai;" xmlns:graph="ns_graphs;" xmlns="http://www.w3.org/2000/svg" xmlns:xlink="http://www.w3.org/1999/xlink" x="0px" y="0px" viewBox="0 0 72 78" style="enable-background:new 0 0 72 78;" xml:space="preserve">
 <style type="text/css">
  .st0{fill:#FFFFFF;}
 </style>
 <metadata>
  <sfw xmlns="ns_sfw;">
   <slices>
   </slices>
   <sliceSourceBounds bottomLeftOrigin="true" height="78" width="72" x="-6.9" y="-239">
   </sliceSourceBounds>
  </sfw>
 </metadata>
 <g id="Wynklogo-Horiz-big" transform="translate(-121.016 -1069.939)">
  <g id="Horiz-long-colour-trans" transform="translate(121.016 1069.939)">
   <g id="wynk-logo">
    <g id="Group_469">
     <path id="Fill-4" class="st0" d="M58.5,22.4l-0.4,3.7c11.4,10.4,12.2,28.2,1.8,39.6c-10.4,11.4-28.2,12.2-39.6,1.8
					C8.9,57,8.1,39.3,18.5,27.9c5.3-5.8,12.8-9.1,20.7-9.1c2.9,0,5.8,0.5,8.5,1.3l0.3-3.1c-2.9-0.9-5.9-1.3-9-1.3
					c-17.2-0.1-31.2,13.8-31.3,31c0,0,0,0,0,0.1C8.1,64,22.1,77.8,39.3,78c17.2-0.1,31.1-14,31.2-31.2
					C70.5,37.2,66.1,28.2,58.5,22.4">
     </path>
     <path id="Fill-6" class="st0" d="M57.3,33.1l-0.7,6.1c1.2,2.5,1.8,5.2,1.8,7.9c-0.2,10.5-8.7,19.1-19.2,19.2
					C28.6,66.2,20,57.6,20,47c0.2-10.5,8.7-19.1,19.2-19.2c2.6,0,5.1,0.5,7.5,1.6l0.4-3.9c-2.5-1-5.2-1.5-8-1.5
					c-12.6,0.1-22.8,10.4-22.7,23s10.4,22.8,23,22.7C52,69.6,62.2,59.4,62.2,46.8C62.1,41.8,60.4,37,57.3,33.1">
     </path>
     <path id="Fill-1" class="st0" d="M2.8,45.8c-0.1-20,16-36.2,36-36.4h0.3V6.8h-0.3C17.4,6.9,0,24.3,0,45.7L2.8,45.8z">
     </path>
     <path id="Fill-8" class="st0" d="M53.1,0l-4.4,39.6c-3.5-2.7-8.1-3.5-12.4-2.2c-6.8,2-7.4,7.2-7.4,8.4c0,2.3,1.7,8.6,10,9.9
					c10,1.3,12.6-4.8,13-6.9c0.5-2.1,3-24.9,3-24.9l1.3-12.5c0,0,7-0.3,10.4,3c2.2,2.5,2.8,6,1.5,9.1c-0.5,1.4-1.6,2.8-0.2,2.3
					c2.1-1.3,3.5-3.4,4.1-5.8c0.3-3.8-1.4-7.4-4.4-9.6c-0.7-0.7-6.3-4-7.3-5c-1.3-1.2-2.2-2.8-2.4-4.6L53.1,0z">
     </path>
    </g>
   </g>
  </g>
 </g>
</svg>